<svg width="202" height="186" viewBox="0 0 202 186" fill="none" xmlns="http://www.w3.org/2000/svg">
<path d="M100.577 184.592C100.669 184.737 100.829 184.825 101 184.825C101.171 184.825 101.331 184.737 101.423 184.592L188.891 46.3486C188.989 46.1946 188.994 45.9997 188.907 45.8401C188.819 45.6804 188.651 45.5813 188.469 45.5813L13.5314 45.5812C13.3492 45.5812 13.1813 45.6804 13.0934 45.8401C13.0055 45.9997 13.0115 46.1946 13.1089 46.3486L100.577 184.592Z" stroke="white" stroke-linejoin="round"/>
<path d="M101 10.9418L188.469 125.829H13.5314L101 10.9418Z" fill="#AC00C8"/>
<g filter="url(#filter0_d)">
<path d="M50.7695 78.3711C50.6784 80.3503 50.1445 82.1016 49.168 83.625C48.1914 85.1354 46.8177 86.3073 45.0469 87.1406C43.2891 87.974 41.2773 88.3906 39.0117 88.3906C35.2747 88.3906 32.332 87.1732 30.1836 84.7383C28.0352 82.3034 26.9609 78.8659 26.9609 74.4258V73.0195C26.9609 70.2331 27.4427 67.7982 28.4062 65.7148C29.3828 63.6185 30.7826 62.0039 32.6055 60.8711C34.4284 59.7253 36.5378 59.1523 38.9336 59.1523C42.3841 59.1523 45.1576 60.0638 47.2539 61.8867C49.3503 63.6966 50.5417 66.1966 50.8281 69.3867H43.9922C43.9401 67.6549 43.5039 66.4115 42.6836 65.6562C41.8633 64.901 40.6133 64.5234 38.9336 64.5234C37.2279 64.5234 35.9779 65.1615 35.1836 66.4375C34.3893 67.7135 33.9727 69.7513 33.9336 72.5508V74.5625C33.9336 77.5964 34.3112 79.7643 35.0664 81.0664C35.8346 82.3685 37.1497 83.0195 39.0117 83.0195C40.5872 83.0195 41.7917 82.6484 42.625 81.9062C43.4583 81.1641 43.901 79.9857 43.9531 78.3711H50.7695ZM66.1781 77.9609H62.4672V88H55.6117V59.5625H66.8031C70.1755 59.5625 72.8122 60.3112 74.7133 61.8086C76.6143 63.306 77.5648 65.4219 77.5648 68.1562C77.5648 70.1354 77.1612 71.776 76.3539 73.0781C75.5596 74.3802 74.3096 75.4349 72.6039 76.2422L78.5414 87.707V88H71.1977L66.1781 77.9609ZM62.4672 72.668H66.8031C68.1052 72.668 69.0818 72.3294 69.7328 71.6523C70.3969 70.9622 70.7289 70.0052 70.7289 68.7812C70.7289 67.5573 70.3969 66.6003 69.7328 65.9102C69.0687 65.207 68.0922 64.8555 66.8031 64.8555H62.4672V72.668ZM90.6102 88H83.7742V59.5625H90.6102V88ZM103.831 78.3516V88H96.9758V59.5625H108.323C110.498 59.5625 112.418 59.9661 114.085 60.7734C115.765 61.5677 117.06 62.707 117.972 64.1914C118.896 65.6628 119.359 67.3359 119.359 69.2109C119.359 71.9844 118.363 74.2044 116.37 75.8711C114.391 77.5247 111.67 78.3516 108.206 78.3516H103.831ZM103.831 73.0586H108.323C109.652 73.0586 110.661 72.7266 111.351 72.0625C112.054 71.3984 112.405 70.4609 112.405 69.25C112.405 67.9219 112.047 66.8607 111.331 66.0664C110.615 65.2721 109.639 64.8685 108.402 64.8555H103.831V73.0586ZM146.955 64.8555H138.42V88H131.564V64.8555H123.185V59.5625H146.955V64.8555ZM175 74.3672C175 77.1406 174.486 79.5951 173.457 81.7305C172.428 83.8659 170.964 85.513 169.062 86.6719C167.174 87.8177 165.02 88.3906 162.598 88.3906C160.176 88.3906 158.027 87.8372 156.152 86.7305C154.277 85.6107 152.812 84.0156 151.758 81.9453C150.716 79.875 150.169 77.4987 150.117 74.8164V73.2148C150.117 70.4284 150.625 67.974 151.641 65.8516C152.669 63.7161 154.134 62.069 156.035 60.9102C157.949 59.7513 160.124 59.1719 162.559 59.1719C164.967 59.1719 167.116 59.7448 169.004 60.8906C170.892 62.0365 172.357 63.6706 173.398 65.793C174.453 67.9023 174.987 70.3242 175 73.0586V74.3672ZM168.027 73.1758C168.027 70.3503 167.552 68.2083 166.602 66.75C165.664 65.2786 164.316 64.543 162.559 64.543C159.121 64.543 157.305 67.1211 157.109 72.2773L157.09 74.3672C157.09 77.1536 157.552 79.2956 158.477 80.793C159.401 82.2904 160.775 83.0391 162.598 83.0391C164.329 83.0391 165.664 82.3034 166.602 80.832C167.539 79.3607 168.014 77.2448 168.027 74.4844V73.1758Z" fill="white"/>
</g>
<g filter="url(#filter1_d)">
<path d="M66.7172 106.428H62.4496V118H59.0219V106.428H54.8324V103.781H66.7172V106.428ZM74.2555 112.98H72.4V118H68.9723V103.781H74.568C76.2542 103.781 77.5725 104.156 78.523 104.904C79.4736 105.653 79.9488 106.711 79.9488 108.078C79.9488 109.068 79.747 109.888 79.3434 110.539C78.9462 111.19 78.3212 111.717 77.4684 112.121L80.4371 117.854V118H76.7652L74.2555 112.98ZM72.4 110.334H74.568C75.219 110.334 75.7073 110.165 76.0328 109.826C76.3648 109.481 76.5309 109.003 76.5309 108.391C76.5309 107.779 76.3648 107.3 76.0328 106.955C75.7008 106.604 75.2125 106.428 74.568 106.428H72.4V110.334ZM90.8953 115.344H86.198L85.3777 118H81.7156L86.9305 103.781H90.1531L95.407 118H91.7254L90.8953 115.344ZM87.0184 112.697H90.075L88.5418 107.766L87.0184 112.697ZM108.541 113.186C108.495 114.175 108.229 115.051 107.74 115.812C107.252 116.568 106.565 117.154 105.68 117.57C104.801 117.987 103.795 118.195 102.662 118.195C100.794 118.195 99.3223 117.587 98.248 116.369C97.1738 115.152 96.6367 113.433 96.6367 111.213V110.51C96.6367 109.117 96.8776 107.899 97.3594 106.857C97.8477 105.809 98.5475 105.002 99.459 104.436C100.37 103.863 101.425 103.576 102.623 103.576C104.348 103.576 105.735 104.032 106.783 104.943C107.831 105.848 108.427 107.098 108.57 108.693H105.152C105.126 107.827 104.908 107.206 104.498 106.828C104.088 106.451 103.463 106.262 102.623 106.262C101.77 106.262 101.145 106.581 100.748 107.219C100.351 107.857 100.143 108.876 100.123 110.275V111.281C100.123 112.798 100.312 113.882 100.689 114.533C101.074 115.184 101.731 115.51 102.662 115.51C103.45 115.51 104.052 115.324 104.469 114.953C104.885 114.582 105.107 113.993 105.133 113.186H108.541ZM115.796 112.707L114.39 114.25V118H110.962V103.781H114.39V110.051L115.581 108.244L118.648 103.781H122.886L118.081 110.07L122.886 118H118.823L115.796 112.707ZM133.373 111.975H127.983V115.363H134.35V118H124.555V103.781H134.37V106.428H127.983V109.426H133.373V111.975ZM141.83 112.98H139.974V118H136.546V103.781H142.142C143.828 103.781 145.147 104.156 146.097 104.904C147.048 105.653 147.523 106.711 147.523 108.078C147.523 109.068 147.321 109.888 146.918 110.539C146.52 111.19 145.895 111.717 145.043 112.121L148.011 117.854V118H144.339L141.83 112.98ZM139.974 110.334H142.142C142.793 110.334 143.282 110.165 143.607 109.826C143.939 109.481 144.105 109.003 144.105 108.391C144.105 107.779 143.939 107.3 143.607 106.955C143.275 106.604 142.787 106.428 142.142 106.428H139.974V110.334Z" fill="white"/>
</g>
<defs>
<filter id="filter0_d" x="22.9609" y="59.1523" width="156.039" height="37.2383" filterUnits="userSpaceOnUse" color-interpolation-filters="sRGB">
<feFlood flood-opacity="0" result="BackgroundImageFix"/>
<feColorMatrix in="SourceAlpha" type="matrix" values="0 0 0 0 0 0 0 0 0 0 0 0 0 0 0 0 0 0 127 0"/>
<feOffset dy="4"/>
<feGaussianBlur stdDeviation="2"/>
<feColorMatrix type="matrix" values="0 0 0 0 0 0 0 0 0 0 0 0 0 0 0 0 0 0 0.25 0"/>
<feBlend mode="normal" in2="BackgroundImageFix" result="effect1_dropShadow"/>
<feBlend mode="normal" in="SourceGraphic" in2="effect1_dropShadow" result="shape"/>
</filter>
<filter id="filter1_d" x="50.8324" y="103.576" width="101.179" height="22.6191" filterUnits="userSpaceOnUse" color-interpolation-filters="sRGB">
<feFlood flood-opacity="0" result="BackgroundImageFix"/>
<feColorMatrix in="SourceAlpha" type="matrix" values="0 0 0 0 0 0 0 0 0 0 0 0 0 0 0 0 0 0 127 0"/>
<feOffset dy="4"/>
<feGaussianBlur stdDeviation="2"/>
<feColorMatrix type="matrix" values="0 0 0 0 0 0 0 0 0 0 0 0 0 0 0 0 0 0 0.25 0"/>
<feBlend mode="normal" in2="BackgroundImageFix" result="effect1_dropShadow"/>
<feBlend mode="normal" in="SourceGraphic" in2="effect1_dropShadow" result="shape"/>
</filter>
</defs>
</svg>
