<svg width="202" height="186" viewBox="0 0 202 186" fill="none" xmlns="http://www.w3.org/2000/svg">
<path d="M100.577 184.592C100.669 184.737 100.829 184.825 101 184.825C101.171 184.825 101.331 184.737 101.423 184.592L188.891 46.3486C188.989 46.1946 188.994 45.9997 188.907 45.8401C188.819 45.6804 188.651 45.5813 188.469 45.5813L13.5314 45.5812C13.3492 45.5812 13.1813 45.6804 13.0934 45.8401C13.0055 45.9997 13.0115 46.1946 13.1089 46.3486L100.577 184.592Z" stroke="white" stroke-linejoin="round"/>
<path d="M101 10.9418L188.469 125.829H13.5314L101 10.9418Z" fill="#AC00C8"/>
<g filter="url(#filter0_d)">
<path d="M55.7695 78.3711C55.6784 80.3503 55.1445 82.1016 54.168 83.625C53.1914 85.1354 51.8177 86.3073 50.0469 87.1406C48.2891 87.974 46.2773 88.3906 44.0117 88.3906C40.2747 88.3906 37.332 87.1732 35.1836 84.7383C33.0352 82.3034 31.9609 78.8659 31.9609 74.4258V73.0195C31.9609 70.2331 32.4427 67.7982 33.4062 65.7148C34.3828 63.6185 35.7826 62.0039 37.6055 60.8711C39.4284 59.7253 41.5378 59.1523 43.9336 59.1523C47.3841 59.1523 50.1576 60.0638 52.2539 61.8867C54.3503 63.6966 55.5417 66.1966 55.8281 69.3867H48.9922C48.9401 67.6549 48.5039 66.4115 47.6836 65.6562C46.8633 64.901 45.6133 64.5234 43.9336 64.5234C42.2279 64.5234 40.9779 65.1615 40.1836 66.4375C39.3893 67.7135 38.9727 69.7513 38.9336 72.5508V74.5625C38.9336 77.5964 39.3112 79.7643 40.0664 81.0664C40.8346 82.3685 42.1497 83.0195 44.0117 83.0195C45.5872 83.0195 46.7917 82.6484 47.625 81.9062C48.4583 81.1641 48.901 79.9857 48.9531 78.3711H55.7695ZM71.1781 77.9609H67.4672V88H60.6117V59.5625H71.8031C75.1755 59.5625 77.8122 60.3112 79.7133 61.8086C81.6143 63.306 82.5648 65.4219 82.5648 68.1562C82.5648 70.1354 82.1612 71.776 81.3539 73.0781C80.5596 74.3802 79.3096 75.4349 77.6039 76.2422L83.5414 87.707V88H76.1977L71.1781 77.9609ZM67.4672 72.668H71.8031C73.1052 72.668 74.0818 72.3294 74.7328 71.6523C75.3969 70.9622 75.7289 70.0052 75.7289 68.7812C75.7289 67.5573 75.3969 66.6003 74.7328 65.9102C74.0687 65.207 73.0922 64.8555 71.8031 64.8555H67.4672V72.668ZM95.6102 88H88.7742V59.5625H95.6102V88ZM108.831 78.3516V88H101.976V59.5625H113.323C115.498 59.5625 117.418 59.9661 119.085 60.7734C120.765 61.5677 122.06 62.707 122.972 64.1914C123.896 65.6628 124.359 67.3359 124.359 69.2109C124.359 71.9844 123.363 74.2044 121.37 75.8711C119.391 77.5247 116.67 78.3516 113.206 78.3516H108.831ZM108.831 73.0586H113.323C114.652 73.0586 115.661 72.7266 116.351 72.0625C117.054 71.3984 117.405 70.4609 117.405 69.25C117.405 67.9219 117.047 66.8607 116.331 66.0664C115.615 65.2721 114.639 64.8685 113.402 64.8555H108.831V73.0586ZM151.955 64.8555H143.42V88H136.564V64.8555H128.185V59.5625H151.955V64.8555ZM180 74.3672C180 77.1406 179.486 79.5951 178.457 81.7305C177.428 83.8659 175.964 85.513 174.062 86.6719C172.174 87.8177 170.02 88.3906 167.598 88.3906C165.176 88.3906 163.027 87.8372 161.152 86.7305C159.277 85.6107 157.812 84.0156 156.758 81.9453C155.716 79.875 155.169 77.4987 155.117 74.8164V73.2148C155.117 70.4284 155.625 67.974 156.641 65.8516C157.669 63.7161 159.134 62.069 161.035 60.9102C162.949 59.7513 165.124 59.1719 167.559 59.1719C169.967 59.1719 172.116 59.7448 174.004 60.8906C175.892 62.0365 177.357 63.6706 178.398 65.793C179.453 67.9023 179.987 70.3242 180 73.0586V74.3672ZM173.027 73.1758C173.027 70.3503 172.552 68.2083 171.602 66.75C170.664 65.2786 169.316 64.543 167.559 64.543C164.121 64.543 162.305 67.1211 162.109 72.2773L162.09 74.3672C162.09 77.1536 162.552 79.2956 163.477 80.793C164.401 82.2904 165.775 83.0391 167.598 83.0391C169.329 83.0391 170.664 82.3034 171.602 80.832C172.539 79.3607 173.014 77.2448 173.027 74.4844V73.1758Z" fill="white"/>
</g>
<g filter="url(#filter1_d)">
<path d="M66.7172 107.428H62.4496V119H59.0219V107.428H54.8324V104.781H66.7172V107.428ZM74.2555 113.98H72.4V119H68.9723V104.781H74.568C76.2542 104.781 77.5725 105.156 78.523 105.904C79.4736 106.653 79.9488 107.711 79.9488 109.078C79.9488 110.068 79.747 110.888 79.3434 111.539C78.9462 112.19 78.3212 112.717 77.4684 113.121L80.4371 118.854V119H76.7652L74.2555 113.98ZM72.4 111.334H74.568C75.219 111.334 75.7073 111.165 76.0328 110.826C76.3648 110.481 76.5309 110.003 76.5309 109.391C76.5309 108.779 76.3648 108.3 76.0328 107.955C75.7008 107.604 75.2125 107.428 74.568 107.428H72.4V111.334ZM90.8953 116.344H86.198L85.3777 119H81.7156L86.9305 104.781H90.1531L95.407 119H91.7254L90.8953 116.344ZM87.0184 113.697H90.075L88.5418 108.766L87.0184 113.697ZM108.541 114.186C108.495 115.175 108.229 116.051 107.74 116.812C107.252 117.568 106.565 118.154 105.68 118.57C104.801 118.987 103.795 119.195 102.662 119.195C100.794 119.195 99.3223 118.587 98.248 117.369C97.1738 116.152 96.6367 114.433 96.6367 112.213V111.51C96.6367 110.117 96.8776 108.899 97.3594 107.857C97.8477 106.809 98.5475 106.002 99.459 105.436C100.37 104.863 101.425 104.576 102.623 104.576C104.348 104.576 105.735 105.032 106.783 105.943C107.831 106.848 108.427 108.098 108.57 109.693H105.152C105.126 108.827 104.908 108.206 104.498 107.828C104.088 107.451 103.463 107.262 102.623 107.262C101.77 107.262 101.145 107.581 100.748 108.219C100.351 108.857 100.143 109.876 100.123 111.275V112.281C100.123 113.798 100.312 114.882 100.689 115.533C101.074 116.184 101.731 116.51 102.662 116.51C103.45 116.51 104.052 116.324 104.469 115.953C104.885 115.582 105.107 114.993 105.133 114.186H108.541ZM115.796 113.707L114.39 115.25V119H110.962V104.781H114.39V111.051L115.581 109.244L118.648 104.781H122.886L118.081 111.07L122.886 119H118.823L115.796 113.707ZM133.373 112.975H127.983V116.363H134.35V119H124.555V104.781H134.37V107.428H127.983V110.426H133.373V112.975ZM141.83 113.98H139.974V119H136.546V104.781H142.142C143.828 104.781 145.147 105.156 146.097 105.904C147.048 106.653 147.523 107.711 147.523 109.078C147.523 110.068 147.321 110.888 146.918 111.539C146.52 112.19 145.895 112.717 145.043 113.121L148.011 118.854V119H144.339L141.83 113.98ZM139.974 111.334H142.142C142.793 111.334 143.282 111.165 143.607 110.826C143.939 110.481 144.105 110.003 144.105 109.391C144.105 108.779 143.939 108.3 143.607 107.955C143.275 107.604 142.787 107.428 142.142 107.428H139.974V111.334Z" fill="white"/>
</g>
<defs>
<filter id="filter0_d" x="27.9609" y="59.1523" width="156.039" height="37.2383" filterUnits="userSpaceOnUse" color-interpolation-filters="sRGB">
<feFlood flood-opacity="0" result="BackgroundImageFix"/>
<feColorMatrix in="SourceAlpha" type="matrix" values="0 0 0 0 0 0 0 0 0 0 0 0 0 0 0 0 0 0 127 0"/>
<feOffset dy="4"/>
<feGaussianBlur stdDeviation="2"/>
<feColorMatrix type="matrix" values="0 0 0 0 0 0 0 0 0 0 0 0 0 0 0 0 0 0 0.25 0"/>
<feBlend mode="normal" in2="BackgroundImageFix" result="effect1_dropShadow"/>
<feBlend mode="normal" in="SourceGraphic" in2="effect1_dropShadow" result="shape"/>
</filter>
<filter id="filter1_d" x="50.8324" y="104.576" width="101.179" height="22.6191" filterUnits="userSpaceOnUse" color-interpolation-filters="sRGB">
<feFlood flood-opacity="0" result="BackgroundImageFix"/>
<feColorMatrix in="SourceAlpha" type="matrix" values="0 0 0 0 0 0 0 0 0 0 0 0 0 0 0 0 0 0 127 0"/>
<feOffset dy="4"/>
<feGaussianBlur stdDeviation="2"/>
<feColorMatrix type="matrix" values="0 0 0 0 0 0 0 0 0 0 0 0 0 0 0 0 0 0 0.25 0"/>
<feBlend mode="normal" in2="BackgroundImageFix" result="effect1_dropShadow"/>
<feBlend mode="normal" in="SourceGraphic" in2="effect1_dropShadow" result="shape"/>
</filter>
</defs>
</svg>
